<mxfile host="app.diagrams.net" modified="2020-10-23T02:04:57.724Z" agent="5.0 (Macintosh; Intel Mac OS X 10_14_0) AppleWebKit/537.36 (KHTML, like Gecko) Chrome/86.0.4240.80 Safari/537.36" etag="bjBGldLxbbG4NC60uzSW" version="13.8.1" type="github">
  <diagram id="P-viX5Zmih55GboETz_U" name="Page-1">
    <mxGraphModel dx="770" dy="384" grid="1" gridSize="10" guides="1" tooltips="1" connect="1" arrows="1" fold="1" page="1" pageScale="1" pageWidth="850" pageHeight="1100" math="0" shadow="0">
      <root>
        <mxCell id="0" />
        <mxCell id="1" parent="0" />
        <mxCell id="oy_jQ6-Jw-z5pdp82pIH-1" value="FactoryOpts" style="swimlane;fontStyle=1;align=center;verticalAlign=top;childLayout=stackLayout;horizontal=1;startSize=26;horizontalStack=0;resizeParent=1;resizeParentMax=0;resizeLast=0;collapsible=1;marginBottom=0;" vertex="1" parent="1">
          <mxGeometry x="90" y="160" width="160" height="114" as="geometry" />
        </mxCell>
        <mxCell id="oy_jQ6-Jw-z5pdp82pIH-2" value="ProviderName string &#xa;SwOpts       *SwOpts&#xa;PluginOpts   *PluginOpts" style="text;strokeColor=none;fillColor=none;align=left;verticalAlign=top;spacingLeft=4;spacingRight=4;overflow=hidden;rotatable=0;points=[[0,0.5],[1,0.5]];portConstraint=eastwest;" vertex="1" parent="oy_jQ6-Jw-z5pdp82pIH-1">
          <mxGeometry y="26" width="160" height="54" as="geometry" />
        </mxCell>
        <mxCell id="oy_jQ6-Jw-z5pdp82pIH-3" value="" style="line;strokeWidth=1;fillColor=none;align=left;verticalAlign=middle;spacingTop=-1;spacingLeft=3;spacingRight=3;rotatable=0;labelPosition=right;points=[];portConstraint=eastwest;" vertex="1" parent="oy_jQ6-Jw-z5pdp82pIH-1">
          <mxGeometry y="80" width="160" height="8" as="geometry" />
        </mxCell>
        <mxCell id="oy_jQ6-Jw-z5pdp82pIH-4" value="+ method(type): type" style="text;strokeColor=none;fillColor=none;align=left;verticalAlign=top;spacingLeft=4;spacingRight=4;overflow=hidden;rotatable=0;points=[[0,0.5],[1,0.5]];portConstraint=eastwest;" vertex="1" parent="oy_jQ6-Jw-z5pdp82pIH-1">
          <mxGeometry y="88" width="160" height="26" as="geometry" />
        </mxCell>
        <mxCell id="oy_jQ6-Jw-z5pdp82pIH-6" value="SwOpts" style="swimlane;fontStyle=1;align=center;verticalAlign=top;childLayout=stackLayout;horizontal=1;startSize=26;horizontalStack=0;resizeParent=1;resizeParentMax=0;resizeLast=0;collapsible=1;marginBottom=0;" vertex="1" parent="1">
          <mxGeometry x="380" y="160" width="240" height="154" as="geometry" />
        </mxCell>
        <mxCell id="oy_jQ6-Jw-z5pdp82pIH-7" value="    SecLevel   int&#xa;    HashFamily string &#xa;    Ephemeral     bool &#xa;    FileKeystore  *FileKeystoreOpts &#xa;    DummyKeystore *DummyKeystoreOpts &#xa;    InmemKeystore *InmemKeystoreOpts " style="text;strokeColor=none;fillColor=none;align=left;verticalAlign=top;spacingLeft=4;spacingRight=4;overflow=hidden;rotatable=0;points=[[0,0.5],[1,0.5]];portConstraint=eastwest;" vertex="1" parent="oy_jQ6-Jw-z5pdp82pIH-6">
          <mxGeometry y="26" width="240" height="94" as="geometry" />
        </mxCell>
        <mxCell id="oy_jQ6-Jw-z5pdp82pIH-8" value="" style="line;strokeWidth=1;fillColor=none;align=left;verticalAlign=middle;spacingTop=-1;spacingLeft=3;spacingRight=3;rotatable=0;labelPosition=right;points=[];portConstraint=eastwest;" vertex="1" parent="oy_jQ6-Jw-z5pdp82pIH-6">
          <mxGeometry y="120" width="240" height="8" as="geometry" />
        </mxCell>
        <mxCell id="oy_jQ6-Jw-z5pdp82pIH-9" value="+ method(type): type" style="text;strokeColor=none;fillColor=none;align=left;verticalAlign=top;spacingLeft=4;spacingRight=4;overflow=hidden;rotatable=0;points=[[0,0.5],[1,0.5]];portConstraint=eastwest;" vertex="1" parent="oy_jQ6-Jw-z5pdp82pIH-6">
          <mxGeometry y="128" width="240" height="26" as="geometry" />
        </mxCell>
      </root>
    </mxGraphModel>
  </diagram>
</mxfile>
